HIERARCHY
ROOT Hips
{
	OFFSET 0.000000 0.000000 0.000000 
	CHANNELS 6 Xposition Yposition Zposition Zrotation Xrotation Yrotation
	JOINT Spine
	{
		OFFSET -0.000000 8.061080 0.000000 
		CHANNELS 3 Zrotation Xrotation Yrotation
		JOINT Spine1
		{
			OFFSET -0.000000 20.532677 0.000000 
			CHANNELS 3 Zrotation Xrotation Yrotation
			JOINT Neck
			{
				OFFSET -0.000000 22.498795 0.000000 
				CHANNELS 3 Zrotation Xrotation Yrotation
				JOINT Head
				{
					OFFSET -0.000000 15.237408 1.966117 
					CHANNELS 3 Zrotation Xrotation Yrotation
					End Site
					{
						OFFSET -0.000000 19.661171 0.000000 
					}
				}
			}
			JOINT LeftShoulder
			{
				OFFSET 3.894675 16.042269 -0.398189 
				CHANNELS 3 Zrotation Xrotation Yrotation
				JOINT LeftArm
				{
					OFFSET 19.709621 0.000000 0.000000 
					CHANNELS 3 Zrotation Xrotation Yrotation
					JOINT LeftForeArm
					{
						OFFSET 25.566900 0.000000 0.000000 
						CHANNELS 3 Zrotation Xrotation Yrotation
						JOINT LeftHand
						{
							OFFSET 25.401896 0.000000 0.000000 
							CHANNELS 3 Zrotation Xrotation Yrotation
							End Site
							{
								OFFSET 14.745877 0.000000 0.000000 
							}
						}
					}
				}
			}
			JOINT RightShoulder
			{
				OFFSET -3.930777 16.042269 -0.398189 
				CHANNELS 3 Zrotation Xrotation Yrotation
				JOINT RightArm
				{
					OFFSET -19.709621 0.000000 0.000000 
					CHANNELS 3 Zrotation Xrotation Yrotation
					JOINT RightForeArm
					{
						OFFSET -25.566900 0.000000 0.000000 
						CHANNELS 3 Zrotation Xrotation Yrotation
						JOINT RightHand
						{
							OFFSET -25.401896 0.000000 0.000000 
							CHANNELS 3 Zrotation Xrotation Yrotation
							End Site
							{
								OFFSET -14.745877 0.000000 0.000000 
							}
						}
					}
				}
			}
		}
	}
	JOINT LeftUpLeg
	{
		OFFSET 9.830585 0.000000 0.000000 
		CHANNELS 3 Zrotation Xrotation Yrotation
		JOINT LeftLeg
		{
			OFFSET -0.000000 -46.474842 0.000000 
			CHANNELS 3 Zrotation Xrotation Yrotation
			JOINT LeftFoot
			{
				OFFSET -0.000000 -30.290520 0.000000 
				CHANNELS 3 Zrotation Xrotation Yrotation
				JOINT LeftToeBase
				{
					OFFSET -0.000000 -6.389880 14.745877 
					CHANNELS 3 Zrotation Xrotation Yrotation
					End Site
					{
						OFFSET -0.000000 0.000000 3.932234 
					}
				}
			}
		}
	}
	JOINT RightUpLeg
	{
		OFFSET -9.830585 0.000000 0.000000 
		CHANNELS 3 Zrotation Xrotation Yrotation
		JOINT RightLeg
		{
			OFFSET -0.000000 -46.474842 0.000000 
			CHANNELS 3 Zrotation Xrotation Yrotation
			JOINT RightFoot
			{
				OFFSET -0.000000 -30.290520 0.000000 
				CHANNELS 3 Zrotation Xrotation Yrotation
				JOINT RightToeBase
				{
					OFFSET -0.000000 -6.389880 14.745877 
					CHANNELS 3 Zrotation Xrotation Yrotation
					End Site
					{
						OFFSET -0.000000 0.000000 3.932234 
					}
				}
			}
		}
	}
}
MOTION
Frames: 7
Frame Time: 0.010000
10.106581 84.764130 4.256357 -2.097343 1.625201 20.490997 1.252563 -3.472234 1.129628 -0.211148 -1.004945 0.360608 3.388442 7.296262 2.248990 -3.411736 11.565652 3.767547 3.182581 11.561232 0.998622 -67.680199 24.920702 -20.631527 -12.242410 0.745069 -3.937547 4.991292 0.642288 7.319375 -8.051946 9.505376 -9.739482 51.366512 52.286430 41.694641 2.596654 -10.029030 12.359830 -1.742200 -10.414937 7.290445 -0.300213 5.385471 -1.290323 1.303389 0.114594 0.332717 3.017256 -4.840217 -2.883107 0.000000 0.000000 0.000000 -10.491095 -20.565392 14.029974 12.765956 13.514215 -17.962364 -41.327717 8.952434 11.339303 0.000000 0.000000 0.000000 
10.141332 84.729652 4.498621 -2.035140 1.571932 20.995317 1.412538 -3.372747 1.064269 -0.354427 -0.956857 0.336658 3.350439 7.244596 2.283899 -3.323298 11.531950 3.773507 3.214231 11.685529 1.104182 -67.667130 24.974953 -21.013880 -12.235825 0.747270 -3.929295 4.907624 0.636684 7.239738 -8.101162 9.455166 -9.588778 52.028080 52.170124 41.010307 2.396303 -10.542871 12.587569 -1.612292 -10.904278 7.351528 -0.301444 5.526090 -1.547078 1.408650 0.231421 0.244272 2.959953 -5.043691 -3.043506 0.000000 0.000000 0.000000 -10.462267 -20.598360 14.382214 12.675166 13.673916 -17.666475 -40.806641 9.148982 10.721641 0.000000 0.000000 0.000000 
10.101649 84.697929 4.788946 -1.967791 1.595931 21.526876 1.313705 -3.364298 1.054108 -0.269838 -0.947154 0.334994 3.471624 7.272168 2.254594 -3.473547 11.459578 3.800001 3.235025 11.643668 0.991867 -67.744553 24.970491 -20.993284 -12.247822 0.759831 -4.118759 4.850908 0.625403 7.249456 -8.042051 9.559832 -9.733764 51.587139 52.365330 41.406193 2.426598 -10.872400 12.551800 -1.389928 -11.224033 7.528638 -0.232454 5.591516 -1.683840 1.427181 0.374003 0.006988 2.886513 -5.251452 -3.197295 0.000000 0.000000 0.000000 -10.415619 -20.635950 14.871328 12.600632 13.745286 -17.448048 -40.234268 9.325794 9.931323 0.000000 0.000000 0.000000 
10.092971 84.682259 5.055787 -1.804981 1.619332 22.128181 1.216780 -3.250120 0.950203 -0.260731 -0.975088 0.301694 3.462297 7.243935 2.253376 -3.487058 11.395245 3.797200 3.201244 11.411315 1.026764 -67.858398 25.091894 -20.866434 -12.255563 0.767609 -4.290487 4.876287 0.615041 7.230321 -8.040910 9.578569 -9.719677 51.906601 52.204090 41.066475 2.483955 -10.808468 12.666329 -1.508403 -11.176855 7.556921 -0.293904 5.660726 -1.954337 1.485448 0.527018 -0.167410 2.815588 -5.341178 -3.318613 0.000000 0.000000 0.000000 -10.502642 -20.624350 15.161660 12.479234 13.857091 -17.179859 -39.568302 9.483528 9.161289 0.000000 0.000000 0.000000 
10.059090 84.666000 5.368576 -1.681065 1.672515 22.691025 0.965655 -3.327801 0.950094 -0.008131 -0.850606 0.306063 3.388545 7.191741 2.248267 -3.416874 11.379116 3.759529 3.183218 11.669702 0.964396 -67.826111 25.044661 -21.327721 -12.250665 0.733225 -4.371010 4.912992 0.573742 7.206023 -8.041594 9.577053 -9.807702 51.890087 52.299080 40.989178 2.416256 -10.811384 12.681454 -1.430310 -11.168192 7.601821 -0.289400 5.728167 -2.120245 1.511915 0.654553 -0.401624 2.732563 -5.450531 -3.436726 0.000000 0.000000 0.000000 -10.507830 -20.635294 15.547101 12.338739 13.980442 -16.970827 -38.840843 9.589396 8.320808 0.000000 0.000000 0.000000 
10.034332 84.640663 5.666106 -1.575605 1.691121 23.311201 0.955112 -3.232994 0.884291 -0.034673 -0.876836 0.284377 3.528421 7.174771 2.268550 -3.609209 11.280193 3.847894 3.187282 11.431215 0.991431 -67.929398 25.225746 -21.231586 -12.252625 0.717517 -4.563077 4.856800 0.530131 7.121838 -8.019372 9.603679 -9.827913 52.009136 52.261562 40.827602 2.468213 -10.883624 12.718949 -1.508721 -11.252284 7.629764 -0.268845 5.801927 -2.357551 1.570065 0.807983 -0.608744 2.638924 -5.614862 -3.562922 0.000000 0.000000 0.000000 -10.537523 -20.607151 15.898029 12.256115 14.093861 -16.795555 -38.068455 9.682977 7.438673 0.000000 0.000000 0.000000 
10.002787 84.619461 5.943506 -1.468520 1.698403 24.047199 0.854183 -3.084986 0.775556 0.161589 -0.999194 0.251039 3.375040 7.298979 2.281163 -3.557620 11.103386 3.817521 3.023478 11.712832 0.876633 -67.809525 25.126076 -21.579447 -12.287283 0.675767 -4.754326 4.898701 0.468034 7.102815 -8.176035 9.708297 -9.755779 51.922955 52.535801 40.883610 2.310440 -11.135179 12.642396 -1.534337 -11.487565 7.716512 -0.239123 5.834988 -2.702966 1.639345 1.015106 -0.816297 2.537433 -5.783179 -3.684704 0.000000 0.000000 0.000000 -10.599939 -20.549065 16.105549 12.154441 14.234151 -16.645266 -37.244633 9.748433 6.571360 0.000000 0.000000 0.000000 
